<svg width="64" height="65" viewBox="0 0 64 65" fill="none" xmlns="http://www.w3.org/2000/svg">
<path d="M7.93739 28.5417V40.5257C7.93739 48.0591 7.93739 51.8244 10.2841 54.1657C12.6281 56.5071 16.4041 56.5071 23.9534 56.5071H34.6334M18.6147 45.8537H29.2947M49.3161 45.8537H49.3427M49.3161 36.5284C54.4761 36.5284 58.6601 40.6244 58.6601 45.6751C58.6601 51.3924 53.0121 54.2004 50.3161 58.4831C49.7427 59.3977 48.9294 59.3977 48.3161 58.4831C45.5374 54.3631 39.9721 51.2724 39.9721 45.6777C39.9721 40.6244 44.1561 36.5284 49.3161 36.5284ZM47.4547 5.84305L16.3987 5.91505C11.7641 5.68838 10.5747 9.06705 10.5747 10.7151C10.5747 12.1924 10.3747 14.3444 7.53473 18.3897C4.69206 22.4351 4.90539 23.6351 6.50539 26.4351C7.83339 28.7604 11.2147 29.6671 12.9801 29.8217C14.0327 29.874 15.0851 29.716 16.076 29.3571C17.0669 28.9982 17.9764 28.4456 18.7514 27.7314C19.5264 27.0172 20.1514 26.1558 20.5899 25.1975C21.0284 24.2391 21.2716 23.2031 21.3054 22.1497C24.0841 30.2297 31.9854 30.2297 35.5054 29.3071C39.0307 28.3791 42.0547 25.0671 42.7667 22.1497C43.1827 25.7764 44.4467 27.8911 48.1721 29.3444C52.0361 30.8484 55.3561 28.547 57.0227 27.0724C58.6894 25.5977 59.7587 22.3231 56.7881 18.7231C54.7401 16.2404 53.8841 13.9017 53.6041 11.4777C53.4441 10.0724 53.3001 8.56305 52.2547 7.60305C50.7294 6.20038 48.5401 5.77372 47.4547 5.84305Z" stroke="#32773A" stroke-width="2.5" stroke-linecap="round" stroke-linejoin="round"/>
</svg>
